<svg id="Layer_1" data-name="Layer 1" xmlns="http://www.w3.org/2000/svg" viewBox="0 0 512 512"><defs><style>.cls-1{fill:#444a5c;}</style></defs><path class="cls-1" d="M511.9,126.27a16,16,0,0,0-9.14-12.77l-240-112a16,16,0,0,0-13.53,0l-240,112A16,16,0,0,0,.1,126.27c0,.11-.1,1.65-.1,1.73V400a16,16,0,0,0,10.06,14.86l240,96a16,16,0,0,0,11.88,0l240-96A16,16,0,0,0,512,400V128C512,127.92,511.91,126.38,511.9,126.27ZM256,33.66l199.74,93.21-76.91,30.77L175.33,71.3ZM240,472.37,32,389.17V151.63l208,83.2Zm16-265.6L56.26,126.87l80.05-37.36,200.35,85Zm224,182.4-208,83.2V234.83l208-83.2Z"/><polygon class="cls-1" points="480 151.63 480 389.17 272 472.37 272 234.83 480 151.63"/><polygon class="cls-1" points="240 234.83 240 472.37 32 389.17 32 151.63 240 234.83"/></svg>