<svg id="Layer_1" data-name="Layer 1" xmlns="http://www.w3.org/2000/svg" viewBox="0 0 512 512"><defs><style>.cls-1{fill:#444a5c;}</style></defs><path class="cls-1" d="M464.87,192.8H454a207.69,207.69,0,0,0-13.33-32.1l7.7-7.69a47.13,47.13,0,0,0,0-66.67L425.67,63.63a47.14,47.14,0,0,0-66.67,0l-7.7,7.71A206.71,206.71,0,0,0,319.2,58V47.13A47.18,47.18,0,0,0,272.07,0H239.93A47.18,47.18,0,0,0,192.8,47.13V58a206.71,206.71,0,0,0-32.1,13.33L153,63.63a47.14,47.14,0,0,0-66.67,0L63.63,86.34a47.13,47.13,0,0,0,0,66.66l7.71,7.7A207.69,207.69,0,0,0,58,192.8H47.13A47.19,47.19,0,0,0,0,239.93v32.14A47.19,47.19,0,0,0,47.13,319.2H58a206.71,206.71,0,0,0,13.33,32.1l-7.7,7.7a47.12,47.12,0,0,0,0,66.66l22.71,22.71a47.14,47.14,0,0,0,66.67,0l7.7-7.71A206.71,206.71,0,0,0,192.8,454v10.87A47.18,47.18,0,0,0,239.93,512h32.14a47.18,47.18,0,0,0,47.13-47.13V454a207.65,207.65,0,0,0,32.1-13.32l7.69,7.69a47.13,47.13,0,0,0,66.67,0l22.71-22.71a47.14,47.14,0,0,0,0-66.67l-7.71-7.7A207.69,207.69,0,0,0,454,319.2h10.87A47.18,47.18,0,0,0,512,272.07V239.93A47.18,47.18,0,0,0,464.87,192.8ZM482,272.07a17.16,17.16,0,0,1-17.13,17.13H442.72a15,15,0,0,0-14.52,11.25,176.36,176.36,0,0,1-19,45.83,15,15,0,0,0,2.31,18.24l15.69,15.7a17.12,17.12,0,0,1,0,24.22l-22.73,22.73a17.11,17.11,0,0,1-24.22,0l-15.69-15.69a15,15,0,0,0-18.25-2.3,176.67,176.67,0,0,1-45.83,19,15,15,0,0,0-11.25,14.53v22.15A17.16,17.16,0,0,1,272.07,482H239.93a17.16,17.16,0,0,1-17.13-17.13V442.72a15,15,0,0,0-11.25-14.53,176.67,176.67,0,0,1-45.83-19,15.09,15.09,0,0,0-18.25,2.3l-15.69,15.7a17.13,17.13,0,0,1-24.23,0L84.83,404.44a17.13,17.13,0,0,1,0-24.23l15.69-15.69a15,15,0,0,0,2.31-18.24,177,177,0,0,1-19-45.83A15,15,0,0,0,69.28,289.2H47.13A17.16,17.16,0,0,1,30,272.07V239.93A17.16,17.16,0,0,1,47.13,222.8H69.28a15,15,0,0,0,14.53-11.25,176.67,176.67,0,0,1,19-45.83,15,15,0,0,0-2.31-18.25L84.83,131.78a17.13,17.13,0,0,1,0-24.23l22.72-22.72a17.13,17.13,0,0,1,24.23,0l15.68,15.68a15,15,0,0,0,18.25,2.31,177,177,0,0,1,45.83-19A15,15,0,0,0,222.8,69.28V47.13A17.16,17.16,0,0,1,239.93,30h32.14A17.16,17.16,0,0,1,289.2,47.13V69.28a15,15,0,0,0,11.25,14.53,176.88,176.88,0,0,1,45.84,19,15,15,0,0,0,18.24-2.3l15.69-15.7a17.13,17.13,0,0,1,24.23,0l22.72,22.72a17.13,17.13,0,0,1,0,24.23l-15.69,15.69a15,15,0,0,0-2.31,18.24,176.7,176.7,0,0,1,19,45.83,15,15,0,0,0,14.52,11.25h22.15A17.16,17.16,0,0,1,482,239.93Z"/><path class="cls-1" d="M464.87,222.8H442.72a15,15,0,0,1-14.52-11.25,176.7,176.7,0,0,0-19-45.83,15,15,0,0,1,2.31-18.24l15.69-15.69a17.13,17.13,0,0,0,0-24.23L404.45,84.84a17.13,17.13,0,0,0-24.23,0l-15.69,15.7a15,15,0,0,1-18.24,2.3,176.88,176.88,0,0,0-45.84-19A15,15,0,0,1,289.2,69.28V47.13A17.16,17.16,0,0,0,272.07,30H239.93A17.16,17.16,0,0,0,222.8,47.13V69.28A15,15,0,0,1,211.55,83.8a177,177,0,0,0-45.83,19,15,15,0,0,1-18.25-2.31L131.79,84.84a17.13,17.13,0,0,0-24.23,0L84.84,107.55a17.13,17.13,0,0,0,0,24.23l15.69,15.69a15,15,0,0,1,2.31,18.25,176.67,176.67,0,0,0-19,45.83A15,15,0,0,1,69.28,222.8H47.13A17.16,17.16,0,0,0,30,239.93v32.14A17.16,17.16,0,0,0,47.13,289.2H69.28A15,15,0,0,1,83.8,300.45a177,177,0,0,0,19,45.83,15,15,0,0,1-2.31,18.24L84.83,380.21a17.13,17.13,0,0,0,0,24.23l22.72,22.72a17.13,17.13,0,0,0,24.23,0l15.69-15.7a15.09,15.09,0,0,1,18.25-2.3,176.67,176.67,0,0,0,45.83,19,15,15,0,0,1,11.25,14.53v22.15A17.16,17.16,0,0,0,239.93,482h32.14a17.16,17.16,0,0,0,17.13-17.13V442.72a15,15,0,0,1,11.25-14.53,176.67,176.67,0,0,0,45.83-19,15,15,0,0,1,18.25,2.3l15.69,15.69a17.11,17.11,0,0,0,24.22,0l22.73-22.73a17.12,17.12,0,0,0,0-24.22l-15.69-15.7a15,15,0,0,1-2.31-18.24,176.36,176.36,0,0,0,19-45.83,15,15,0,0,1,14.52-11.25h22.15A17.16,17.16,0,0,0,482,272.07V239.93A17.16,17.16,0,0,0,464.87,222.8ZM256,367.4A111.4,111.4,0,1,1,367.4,256,111.52,111.52,0,0,1,256,367.4Z"/><path class="cls-1" d="M256,144.6A111.4,111.4,0,1,0,367.4,256,111.52,111.52,0,0,0,256,144.6Zm0,192.8A81.4,81.4,0,1,1,337.4,256,81.5,81.5,0,0,1,256,337.4Z"/></svg>