<svg id="Capa_1" data-name="Capa 1" xmlns="http://www.w3.org/2000/svg" viewBox="0 0 450.37 512"><defs><style>.cls-1{fill:#FFA037;}</style></defs><path class="cls-1" d="M475.42,200.23,262.09,4.67A17.78,17.78,0,0,0,237.7,5L36.21,200.57a17.8,17.8,0,0,0-5.4,12.76V494.22A17.78,17.78,0,0,0,48.59,512H196.74a17.78,17.78,0,0,0,17.78-17.78V363.85h83V494.22A17.78,17.78,0,0,0,315.26,512H463.41a17.76,17.76,0,0,0,17.77-17.78V213.33A17.75,17.75,0,0,0,475.42,200.23ZM445.63,476.44H333V346.07a17.78,17.78,0,0,0-17.78-17.77H196.74A17.78,17.78,0,0,0,179,346.07V476.44H66.37V220.85l184-178.63L445.63,221.15V476.44Z" transform="translate(-30.81 0)"/><path class="cls-1" d="M61,231" transform="translate(-30.81 0)"/><path class="cls-1" d="M61,486H186l17-120,103-16s12,111,13,117,22,26,28,26h92l20-16.56L465,231,250,32,61,202V493" transform="translate(-30.81 0)"/></svg>