<svg width="32" height="28" viewBox="0 0 32 28" fill="none" xmlns="http://www.w3.org/2000/svg">
<path d="M25.7033 13.427C28.8648 10.5848 29.1237 5.71792 26.2816 2.55642C23.6748 -0.343197 19.3117 -0.835794 16.1241 1.40971C12.6493 -1.04262 7.84443 -0.213706 5.3921 3.26107C3.14188 6.44949 3.63247 10.8171 6.53396 13.4269C2.92879 15.3273 0.678703 19.074 0.695035 23.1493V26.4544C0.695035 27.0628 1.18828 27.5561 1.79674 27.5561H30.4406C31.0491 27.5561 31.5423 27.0628 31.5423 26.4544V23.1493C31.5586 19.074 29.3085 15.3273 25.7033 13.427ZM20.5254 2.21726C23.5633 2.2139 26.0288 4.67392 26.0322 7.71187C26.0346 9.8785 24.765 11.8447 22.7893 12.734C22.7045 12.7725 22.6197 12.8077 22.5338 12.8441C22.2619 12.9538 21.9815 13.0411 21.6954 13.1053C21.6403 13.1174 21.5852 13.124 21.529 13.135C21.2093 13.1963 20.885 13.2291 20.5595 13.2331C20.413 13.2331 20.2653 13.222 20.1188 13.2089C20.0637 13.2089 20.0086 13.2089 19.9535 13.1978C19.3274 13.1241 18.7183 12.9446 18.1523 12.6668C18.1314 12.6569 18.1071 12.658 18.0862 12.6492C17.976 12.5963 17.8659 12.55 17.7678 12.4905C17.7767 12.4795 17.7821 12.4674 17.7909 12.4564C18.2961 11.8072 18.6944 11.0817 18.9708 10.307L19.005 10.2144C19.1306 9.84441 19.2282 9.46549 19.2969 9.08076C19.3069 9.0246 19.3145 8.97057 19.3234 8.91002C19.3871 8.51838 19.4206 8.12249 19.4236 7.72568C19.4205 7.32966 19.387 6.93447 19.3234 6.54354C19.3145 6.48628 19.3069 6.43335 19.2969 6.3728C19.2282 5.98814 19.1306 5.60915 19.005 5.23914L18.9708 5.14657C18.6944 4.37188 18.296 3.64631 17.7909 2.99718C17.7821 2.98614 17.7766 2.97407 17.7678 2.96303C18.6048 2.47476 19.5564 2.21733 20.5254 2.21726ZM6.20345 7.72575C6.19564 4.69141 8.64907 2.22527 11.6834 2.21745C13.1057 2.21378 14.4741 2.76189 15.5006 3.74643C15.5645 3.80815 15.6273 3.86979 15.689 3.9337C15.8782 4.13194 16.0527 4.34367 16.2112 4.56715C16.2597 4.63545 16.3038 4.7082 16.3489 4.77869C16.5029 5.01566 16.638 5.26431 16.7532 5.52233C16.7808 5.58514 16.8017 5.64904 16.8259 5.71179C16.942 5.99717 17.0334 6.29205 17.0991 6.59312C17.1069 6.62617 17.1091 6.65922 17.1157 6.69337C17.2552 7.37742 17.2552 8.08266 17.1157 8.76672C17.1091 8.80086 17.1068 8.83391 17.0991 8.86696C17.0335 9.16803 16.9421 9.46291 16.8259 9.74829C16.8017 9.8111 16.7807 9.87501 16.7532 9.93775C16.6379 10.1954 16.5027 10.4436 16.3489 10.6803C16.3037 10.7508 16.2597 10.8235 16.2112 10.8918C16.0527 11.1154 15.8782 11.327 15.689 11.5253C15.6273 11.5892 15.5645 11.6509 15.5006 11.7125C15.0546 12.1376 14.5403 12.4847 13.9792 12.7393C13.89 12.78 13.7996 12.8176 13.7082 12.8495C13.4426 12.9549 13.1694 13.0396 12.8908 13.1029C12.8214 13.1183 12.7497 13.1271 12.6792 13.1392C12.3801 13.1949 12.0768 13.2255 11.7725 13.2307H11.6514C11.3472 13.2255 11.0438 13.1949 10.7447 13.1392C10.6742 13.1271 10.6025 13.1183 10.5332 13.1029C10.2545 13.0396 9.98123 12.9549 9.71573 12.8495C9.62426 12.8132 9.53395 12.7757 9.44474 12.7393C7.47371 11.8494 6.20597 9.88831 6.20345 7.72575ZM20.5254 25.3527H2.89839V23.1494C2.88225 19.4161 5.2344 16.083 8.75713 14.8471C10.6482 15.6344 12.7754 15.6344 14.6666 14.8471C15.0344 14.9815 15.3929 15.1401 15.7397 15.3219C15.9688 15.4398 16.1804 15.5742 16.4007 15.7097C16.5439 15.7989 16.6893 15.886 16.827 15.984C17.0397 16.1349 17.2402 16.2991 17.4374 16.4676C17.5641 16.5778 17.6896 16.688 17.8086 16.7982C17.9904 16.97 18.1611 17.1518 18.3253 17.338C18.4432 17.4724 18.5577 17.609 18.6668 17.75C18.8112 17.9351 18.9489 18.1246 19.0767 18.3196C19.1869 18.4848 19.2849 18.6567 19.3818 18.8286C19.492 19.018 19.5933 19.2076 19.6859 19.4048C19.7784 19.602 19.8599 19.8179 19.9392 20.0283C20.0086 20.2112 20.0825 20.393 20.1397 20.5792C20.2169 20.8347 20.2708 21.0991 20.3248 21.3635C20.3578 21.5199 20.4008 21.6731 20.425 21.8317C20.4903 22.2679 20.5238 22.7083 20.5253 23.1494V25.3527H20.5254ZM29.3389 25.3527H22.7288V23.1494C22.7288 22.8045 22.709 22.463 22.6781 22.1248C22.6693 22.0256 22.6539 21.9276 22.6429 21.8284C22.6131 21.5849 22.5789 21.3437 22.5327 21.1046C22.5128 21.0026 22.4919 20.9001 22.4699 20.7972C22.417 20.5519 22.3557 20.3088 22.2859 20.0679C22.2628 19.9886 22.2418 19.9081 22.2176 19.83C21.9091 18.8438 21.4621 17.9065 20.8901 17.046L20.8471 16.9832C20.6576 16.7019 20.4552 16.4298 20.24 16.1669L20.2323 16.157C20.012 15.8838 19.7729 15.6182 19.5218 15.367C19.5361 15.367 19.5515 15.367 19.5669 15.367C19.8778 15.4079 20.1909 15.43 20.5045 15.4331H20.5651C20.8553 15.4306 21.1451 15.4118 21.4333 15.377C21.5236 15.3659 21.6129 15.3494 21.7032 15.3351C21.9375 15.2991 22.1688 15.2525 22.3972 15.1952C22.4622 15.1787 22.5283 15.1632 22.5944 15.1445C22.8942 15.063 23.1885 14.9629 23.4758 14.8449C27.0011 16.0796 29.3554 19.4142 29.339 23.1494V25.3527H29.3389Z" fill="#FF953C"/>
</svg>
