<svg width="33" height="33" viewBox="0 0 33 33" fill="none" xmlns="http://www.w3.org/2000/svg">
<path d="M7.78377 13.1872C7.78377 16.2021 10.2365 18.6549 13.2514 18.6549C13.9622 18.6549 14.538 19.2309 14.538 19.9414C14.538 20.6522 13.9622 21.2279 13.2514 21.2279C8.81779 21.2279 5.21068 17.6208 5.21068 13.1872C5.21068 8.75327 8.81779 5.14617 13.2514 5.14617C17.6854 5.14617 21.2925 8.75327 21.2925 13.1872C21.2925 13.8977 20.7164 14.4737 20.0059 14.4737C19.2954 14.4737 18.7194 13.8977 18.7194 13.1872C18.7194 10.1722 16.2664 7.71925 13.2514 7.71925C10.2365 7.71925 7.78377 10.1722 7.78377 13.1872ZM8.79462 24.5664C5.49317 20.9513 2.64213 17.8288 2.6376 13.1746C2.6444 7.32901 7.40586 2.57308 13.2514 2.57308C19.0973 2.57308 23.8585 7.32901 23.8653 13.1746C23.8663 13.8848 24.4421 14.4599 25.1518 14.4596H25.1534C25.8638 14.4589 26.4394 13.8821 26.4384 13.1716C26.4344 9.65234 25.061 6.34459 22.5709 3.85736C20.0809 1.36988 16.7712 0 13.2514 0C9.73196 0 6.4222 1.36988 3.93195 3.85736C1.4422 6.34459 0.0685425 9.65234 0.0645142 13.1743C0.0670319 15.7381 0.779036 18.1435 2.24157 20.528C3.50771 22.5928 5.15278 24.3942 6.89452 26.3016C8.60202 28.1718 10.3679 30.1053 11.7781 32.3365C12.0228 32.7237 12.44 32.9357 12.8667 32.9357C13.1019 32.9357 13.3396 32.8715 13.5531 32.7366C14.1535 32.3569 14.3328 31.5623 13.9531 30.9616C12.4214 28.5383 10.5777 26.5191 8.79462 24.5664ZM32.6629 25.1838C32.4091 25.4615 32.0617 25.6022 31.7132 25.6022C31.403 25.6022 31.0921 25.4909 30.8454 25.2653L30.6842 25.118V29.3752C30.6842 31.374 29.0593 32.9999 27.0623 32.9999H19.8325C17.8354 32.9999 16.2105 31.374 16.2105 29.3752V25.177L16.1138 25.2653C15.5894 25.7449 14.7757 25.7084 14.296 25.184C13.8167 24.6596 13.8532 23.8456 14.3776 23.3662L21.018 17.2951C22.4214 16.0123 24.5378 16.0123 25.9409 17.2951L30.1955 21.1851C30.2426 21.2224 30.2869 21.2629 30.3282 21.3062L32.5816 23.3662C33.106 23.8456 33.1425 24.6596 32.6629 25.1838ZM28.1111 22.7655L24.2047 19.1942C23.7913 18.8162 23.1679 18.8162 22.7545 19.1942L18.7836 22.8242V29.3752C18.7836 29.955 19.2541 30.4269 19.8327 30.4269H27.0623C27.6406 30.4269 28.1111 29.955 28.1111 29.3752V22.7655Z" fill="white"/>
</svg>
