<svg width="37" height="37" viewBox="0 0 37 37" fill="none" xmlns="http://www.w3.org/2000/svg">
<path d="M27.9443 21.9979C25.3726 21.9979 23.2805 24.09 23.2805 26.6617C23.2805 29.2335 25.3726 31.3256 27.9443 31.3256C30.5165 31.3256 32.6082 29.2335 32.6082 26.6617C32.6082 24.09 30.5161 21.9979 27.9443 21.9979ZM27.9443 28.9937C26.6583 28.9937 25.6124 27.9478 25.6124 26.6617C25.6124 25.3757 26.6583 24.3298 27.9443 24.3298C29.2304 24.3298 30.2763 25.3757 30.2763 26.6617C30.2763 27.9479 29.2304 28.9937 27.9443 28.9937Z" fill="white"/>
<path d="M12.0095 21.9979C9.43774 21.9979 7.34558 24.09 7.34558 26.6617C7.34558 29.2335 9.43774 31.3256 12.0095 31.3256C14.5812 31.3256 16.6733 29.2335 16.6733 26.6617C16.6733 24.09 14.5812 21.9979 12.0095 21.9979ZM12.0095 28.9937C10.7234 28.9937 9.67752 27.9478 9.67752 26.6617C9.67752 25.3757 10.7234 24.3298 12.0095 24.3298C13.2951 24.3298 14.3414 25.3757 14.3414 26.6617C14.3414 27.9479 13.2955 28.9937 12.0095 28.9937Z" fill="white"/>
<path d="M31.0851 8.64843C30.8868 8.25472 30.4838 8.00635 30.0431 8.00635H23.9023V10.3383H29.324L32.4989 16.6531L34.5829 15.6053L31.0851 8.64843Z" fill="white"/>
<path d="M24.4464 25.5347H15.624V27.8666H24.4464V25.5347Z" fill="white"/>
<path d="M8.51149 25.5347H4.46952C3.82549 25.5347 3.30359 26.0566 3.30359 26.7006C3.30359 27.3446 3.82556 27.8665 4.46952 27.8665H8.51156C9.15559 27.8665 9.67749 27.3446 9.67749 26.7006C9.67749 26.0566 9.15552 25.5347 8.51149 25.5347Z" fill="white"/>
<path d="M36.7551 18.4067L34.4617 15.4529C34.2414 15.1684 33.9013 15.0021 33.541 15.0021H25.0683V6.84031C25.0683 6.19628 24.5463 5.67438 23.9023 5.67438H4.46952C3.82549 5.67438 3.30359 6.19635 3.30359 6.84031C3.30359 7.48427 3.82556 8.00624 4.46952 8.00624H22.7363V16.168C22.7363 16.812 23.2583 17.3339 23.9023 17.3339H32.97L34.668 19.5213V25.5346H31.4422C30.7981 25.5346 30.2762 26.0565 30.2762 26.7005C30.2762 27.3445 30.7982 27.8664 31.4422 27.8664H35.834C36.478 27.8664 36.9999 27.3444 37 26.7005V19.1219C37 18.863 36.9137 18.6112 36.7551 18.4067Z" fill="white"/>
<path d="M8.43384 19.6271H3.07035C2.42632 19.6271 1.90442 20.1491 1.90442 20.7931C1.90442 21.4371 2.42639 21.959 3.07035 21.959H8.43376C9.0778 21.959 9.5997 21.437 9.5997 20.7931C9.59977 20.1491 9.07779 19.6271 8.43384 19.6271Z" fill="white"/>
<path d="M11.1155 15.041H1.16593C0.521975 15.041 0 15.5629 0 16.207C0 16.851 0.521975 17.3729 1.16593 17.3729H11.1155C11.7596 17.3729 12.2815 16.8509 12.2815 16.207C12.2815 15.563 11.7596 15.041 11.1155 15.041Z" fill="white"/>
<path d="M13.02 10.4548H3.07035C2.42632 10.4548 1.90442 10.9768 1.90442 11.6208C1.90442 12.2648 2.42639 12.7867 3.07035 12.7867H13.02C13.664 12.7867 14.1859 12.2647 14.1859 11.6208C14.186 10.9768 13.664 10.4548 13.02 10.4548Z" fill="white"/>
</svg>
