<svg width="17" height="24" viewBox="0 0 17 24" fill="none" xmlns="http://www.w3.org/2000/svg">
<path d="M8.20352 0.738281C12.5159 0.738281 16.0244 4.24676 16.0244 8.55917C16.0244 13.9794 8.19583 23.2383 8.19583 23.2383C8.19583 23.2383 0.382629 13.7129 0.382629 8.55917C0.382629 4.24676 3.89098 0.738281 8.20352 0.738281ZM5.8438 10.8491C6.49446 11.4997 7.34892 11.825 8.20352 11.825C9.05798 11.825 9.91272 11.4997 10.5631 10.8491C11.8643 9.54808 11.8643 7.43101 10.5631 6.12982C9.93304 5.49948 9.09492 5.15231 8.20352 5.15231C7.31212 5.15231 6.47414 5.49962 5.8438 6.12982C4.5426 7.43101 4.5426 9.54808 5.8438 10.8491Z" fill="#FFA037"/>
</svg>
