<svg width="17" height="17" viewBox="0 0 17 17" fill="none" xmlns="http://www.w3.org/2000/svg">
<path d="M7.72573 3.86331C7.72573 1.73336 5.99268 0 3.86273 0C1.73275 0 0 1.73336 0 3.86331C0 5.99268 1.73275 7.72543 3.86273 7.72543C5.99268 7.72546 7.72573 5.99272 7.72573 3.86331ZM1.91887 3.86331C1.91887 2.79084 2.79084 1.91887 3.86273 1.91887C4.93455 1.91887 5.80686 2.79084 5.80686 3.86331C5.80686 4.93455 4.93455 5.80655 3.86273 5.80655C2.79084 5.80655 1.91887 4.93459 1.91887 3.86331Z" fill="#FF953C"/>
<path d="M12.4977 9.27454C10.3676 9.27454 8.63489 11.0073 8.63489 13.1367C8.63489 15.2666 10.3676 17 12.4977 17C14.6276 17 16.3604 15.2667 16.3604 13.1367C16.3604 11.0072 14.6276 9.27454 12.4977 9.27454ZM12.4977 15.0811C11.4258 15.0811 10.5538 14.2091 10.5538 13.1367C10.5538 12.0654 11.4258 11.1934 12.4977 11.1934C13.5695 11.1934 14.4415 12.0654 14.4415 13.1367C14.4415 14.2091 13.5694 15.0811 12.4977 15.0811Z" fill="#FF953C"/>
<path d="M12.6166 0.495303C12.1153 0.217319 11.4817 0.396664 11.2021 0.898254L3.31668 15.0574C3.03716 15.559 3.21743 16.1923 3.71925 16.4722C3.87947 16.5609 4.05314 16.6034 4.22429 16.6034C4.58938 16.6034 4.94358 16.411 5.13377 16.0693L13.0192 1.91013C13.2987 1.40851 13.1185 0.775165 12.6166 0.495303Z" fill="#FF953C"/>
</svg>
