<svg width="24" height="24" viewBox="0 0 24 24" fill="none" xmlns="http://www.w3.org/2000/svg">
<path d="M16.7032 8.64525C17.0625 8.3595 17.2252 7.8735 17.07 7.413C16.9365 7.023 16.6125 6.75975 16.236 6.68175C16.6417 5.9055 16.9702 4.98975 17.1472 4.2825C17.4127 3.219 17.5837 1.74975 16.8907 0.7905C16.419 0.13725 15.8467 0 15.4507 0C14.5297 0 13.7167 0.73125 12.9975 1.3755C12.7575 1.59075 12.4117 1.90125 12.2085 2.02425C12.0262 1.923 11.7742 1.758 11.5297 1.59675C10.671 1.02975 9.60374 0.3255 8.52224 0.3255C8.10749 0.3255 7.72499 0.42975 7.38524 0.633C7.06274 0.828 6.66749 1.2465 6.62474 2.1375C6.56399 3.39 7.22999 5.36475 7.96499 6.6975C7.63424 6.78675 7.34699 7.0215 7.21199 7.36575C7.03049 7.83 7.18424 8.3385 7.55174 8.637C5.69699 10.7595 3.31799 14.886 3.31799 17.064C3.31799 21.2122 6.80774 24 12 24C17.1922 24 20.682 21.2115 20.682 17.0632C20.6827 14.8725 18.4717 10.794 16.7032 8.64525ZM8.31599 2.0355C8.36399 2.01675 8.42999 2.00025 8.52074 2.00025C9.09899 2.00025 9.96974 2.57475 10.605 2.99475C11.0295 3.2745 11.3962 3.516 11.733 3.651C11.8762 3.708 12.03 3.73725 12.1882 3.73725C12.8692 3.73725 13.4482 3.2205 14.1127 2.62275C14.4817 2.292 15.1687 1.67475 15.4372 1.67175C15.4477 1.67625 15.483 1.704 15.5295 1.7715C16.1857 2.67975 14.9655 5.967 14.28 6.654C13.9695 6.7065 13.2442 6.80625 12.282 6.80625C11.286 6.80625 10.2517 6.61875 9.82424 6.531C9.16124 5.7855 8.06399 2.7855 8.31599 2.0355ZM12 22.3245C8.76674 22.3245 4.99349 20.9475 4.99349 17.0632C4.99349 15.3158 7.58324 10.8682 9.25799 9.26025C9.53624 9.31275 9.82049 9.357 10.1047 9.39375C10.2892 9.4215 10.4752 9.44325 10.6597 9.45975C10.6815 9.46275 10.7025 9.46425 10.7242 9.46725C10.8622 9.47925 10.9965 9.4875 11.13 9.4965C12.4425 9.58425 13.7737 9.51525 15.0435 9.28425C16.6845 11.0145 19.0065 15.2655 19.0065 17.064C19.0065 20.9475 15.234 22.3245 12 22.3245Z" fill="#FF953C"/>
<path d="M14.2305 16.6418C14.0797 16.4483 13.8585 16.2683 13.5675 16.0995C13.2772 15.9338 12.888 15.8153 12.3982 15.7418C11.6115 15.6233 11.2177 15.3818 11.2177 15.015C11.2177 14.8845 11.2807 14.7645 11.4082 14.6535C11.5342 14.5425 11.7157 14.4833 11.952 14.4833C12.1155 14.4833 12.258 14.4983 12.378 14.526C12.4995 14.5553 12.6112 14.595 12.7117 14.649C12.813 14.7 12.9082 14.769 12.999 14.8523C13.0867 14.9325 13.1805 15.0263 13.2772 15.135H14.4667V13.365H13.2847V13.6185C13.1437 13.5338 12.9877 13.4663 12.813 13.4153V12.7748H11.631V13.3313C11.4007 13.365 11.1885 13.431 10.995 13.5293C10.8015 13.6275 10.632 13.752 10.488 13.9013C10.3447 14.049 10.233 14.2193 10.1557 14.4113C10.077 14.6018 10.0372 14.805 10.0372 15.0195C10.0372 15.1643 10.062 15.333 10.1092 15.5205C10.1565 15.7095 10.2585 15.8925 10.4122 16.0725C10.5675 16.2525 10.7872 16.4183 11.0745 16.5705C11.3617 16.7228 11.7442 16.836 12.2212 16.9088C12.3577 16.9305 12.4935 16.9598 12.6315 16.9965C12.7695 17.0333 12.8955 17.0828 13.011 17.1443C13.1265 17.2058 13.2202 17.2808 13.2937 17.367C13.368 17.4548 13.4032 17.5575 13.4032 17.676C13.4032 17.817 13.332 17.9295 13.1925 18.0173C13.0515 18.1035 12.8745 18.1478 12.6607 18.1478C12.498 18.1478 12.3532 18.1343 12.2272 18.1095C12.0997 18.0848 11.9857 18.045 11.88 17.9925C11.7757 17.9385 11.6752 17.871 11.577 17.7893C11.4787 17.709 11.379 17.6123 11.2785 17.499H10.0965V19.2698H11.2785V19.0058C11.334 19.035 11.391 19.0613 11.451 19.086C11.5095 19.1093 11.5695 19.137 11.631 19.1648V19.8563H12.813V19.3275C13.065 19.3118 13.2997 19.2585 13.5165 19.1678C13.7317 19.077 13.9192 18.9615 14.0775 18.813C14.2342 18.6668 14.3587 18.4965 14.448 18.303C14.5387 18.108 14.583 17.8988 14.583 17.6745C14.583 17.556 14.5635 17.4023 14.52 17.2148C14.478 17.0273 14.382 16.8353 14.2305 16.6418Z" fill="#FF953C"/>
</svg>
